<?xml version="1.0" encoding="UTF-8"?>
<svg id="Layer_2" data-name="Layer 2" xmlns="http://www.w3.org/2000/svg" xmlns:xlink="http://www.w3.org/1999/xlink" viewBox="0 0 40 41">
  <defs>
    <style>
      .cls-1 {
        clip-path: url(#clippath);
      }

      .cls-2 {
        fill: none;
      }

      .cls-3 {
        fill: #c7231a;
        fill-rule: evenodd;
      }
    </style>
    <clipPath id="clippath">
      <rect class="cls-2" width="40" height="41"/>
    </clipPath>
  </defs>
  <g id="Layer_1-2" data-name="Layer 1">
    <g class="cls-1">
      <path class="cls-3" d="m13.72.52c-2.26,0-4.42.9-6.02,2.49L0,10.71v3.52c0,2.49,1.07,4.73,2.77,6.29-1.77,1.61-2.77,3.89-2.77,6.28v3.52l7.7,7.7c3.32,3.32,8.71,3.32,12.03,0,.09-.09.18-.19.27-.28,3.17,3.47,8.55,3.72,12.02.55.1-.09.19-.18.28-.27l7.7-7.7v-3.52c0-2.49-1.07-4.73-2.77-6.29,1.77-1.61,2.78-3.89,2.77-6.29v-3.52l-7.7-7.7c-3.32-3.32-8.71-3.32-12.03,0-.09.09-.18.19-.27.28-1.61-1.77-3.89-2.78-6.28-2.77h0Zm12.04,20c-.1-.09-.19-.18-.28-.27l-5.48-5.48-5.48,5.48c-.09.09-.19.18-.28.27.1.09.19.18.28.27l5.48,5.48,5.48-5.48c.09-.09.19-.18.28-.27Zm-3.54,9.81v1.68c0,2.24,1.82,4.06,4.06,4.06,1.08,0,2.11-.43,2.87-1.19l6.4-6.4v-1.68c0-2.24-1.82-4.06-4.06-4.07-1.08,0-2.11.43-2.88,1.19l-6.4,6.4h0Zm-4.44,0l-6.4-6.4c-1.59-1.59-4.16-1.59-5.75,0-.76.76-1.19,1.8-1.19,2.88v1.68l6.4,6.4c1.59,1.59,4.16,1.59,5.75,0,.76-.76,1.19-1.8,1.19-2.88v-1.68Zm0-21.3v1.68l-6.4,6.4c-1.59,1.59-4.16,1.59-5.75,0-.76-.76-1.19-1.8-1.19-2.88v-1.68l6.4-6.4c1.59-1.59,4.16-1.59,5.75,0,.76.76,1.19,1.8,1.19,2.88Zm10.84,8.08l-6.4-6.4v-1.68c0-2.24,1.82-4.06,4.06-4.06,1.08,0,2.11.43,2.87,1.19l6.4,6.4v1.68c0,2.24-1.82,4.06-4.06,4.06-1.08,0-2.11-.43-2.88-1.19h0Z"/>
    </g>
  </g>
</svg>