<?xml version="1.0" encoding="UTF-8"?>
<svg id="Layer_1" data-name="Layer 1" xmlns="http://www.w3.org/2000/svg" xmlns:xlink="http://www.w3.org/1999/xlink" viewBox="0 0 177.73 41">
  <defs>
    <style>
      .cls-1 {
        clip-path: url(#clippath);
      }

      .cls-2 {
        fill: none;
      }

      .cls-3 {
        fill: #eef8f9;
      }

      .cls-4 {
        fill: #c7231a;
        fill-rule: evenodd;
      }
    </style>
    <clipPath id="clippath">
      <rect class="cls-2" x="0" width="40" height="41"/>
    </clipPath>
  </defs>
  <g class="cls-1">
    <path class="cls-4" d="m13.72.52c-2.26,0-4.42.9-6.02,2.49L0,10.71v3.52C0,16.72,1.07,18.96,2.77,20.52,1,22.13,0,24.41,0,26.8v3.52l7.7,7.7c3.32,3.32,8.71,3.32,12.03,0,.09-.09.18-.19.27-.28,3.17,3.47,8.55,3.72,12.02.55.1-.09.19-.18.28-.27l7.7-7.7v-3.52c0-2.49-1.07-4.73-2.77-6.29,1.77-1.61,2.78-3.89,2.77-6.29v-3.52l-7.7-7.7c-3.32-3.32-8.71-3.32-12.03,0-.09.09-.18.19-.27.28-1.61-1.77-3.89-2.78-6.28-2.77Zm12.04,20c-.1-.09-.19-.18-.28-.27l-5.48-5.48-5.48,5.48c-.09.09-.19.18-.28.27.1.09.19.18.28.27l5.48,5.48,5.48-5.48c.09-.09.19-.18.28-.27Zm-3.54,9.81v1.68c0,2.24,1.82,4.06,4.06,4.06,1.08,0,2.11-.43,2.87-1.19l6.4-6.4v-1.68c0-2.24-1.82-4.06-4.06-4.07-1.08,0-2.11.43-2.88,1.19,0,0-6.4,6.4-6.4,6.4Zm-4.44,0l-6.4-6.4c-1.59-1.59-4.16-1.59-5.75,0-.76.76-1.19,1.8-1.19,2.88v1.68l6.4,6.4c1.59,1.59,4.16,1.59,5.75,0,.76-.76,1.19-1.8,1.19-2.88,0,0,0-1.68,0-1.68Zm0-21.3v1.68l-6.4,6.4c-1.59,1.59-4.16,1.59-5.75,0-.76-.76-1.19-1.8-1.19-2.88v-1.68l6.4-6.4c1.59-1.59,4.16-1.59,5.75,0,.76.76,1.19,1.8,1.19,2.88Zm10.84,8.08l-6.4-6.4v-1.68c0-2.24,1.82-4.06,4.06-4.06,1.08,0,2.11.43,2.87,1.19l6.4,6.4v1.68c0,2.24-1.82,4.06-4.06,4.06-1.08,0-2.11-.43-2.88-1.19Z"/>
  </g>
  <path class="cls-3" d="m54.32,29V12.2h11.48v3.1h-7.93v3.6h6.72v2.87h-6.72v4.1h8.03v3.13s-11.58,0-11.58,0Zm12.82.02l4.37-6.04-4.14-6.11h4.43l2.15,3.68,2.09-3.68h4.32l-4.02,6.04,4.33,6.08h-4.49l-2.35-3.7-2.39,3.66s-4.3.06-4.3.06Zm20.29.34c-1.3,0-2.32-.36-3.07-1.09-.74-.74-1.12-1.84-1.12-3.32v-11.56h3.5v3.49h3.01v2.81h-3.01v4.62c0,.71.15,1.21.44,1.5s.69.43,1.19.43c.26,0,.5-.03.74-.08.25-.06.48-.15.68-.26l.49,2.76c-.36.2-.79.37-1.3.5-.51.14-1.04.21-1.57.2Zm-6.65-9.67v-2.81h2.81v2.81h-2.81,0Zm17.13,9.67c-1.32,0-2.48-.27-3.48-.8-.98-.51-1.79-1.29-2.34-2.24-.56-.96-.84-2.08-.84-3.37,0-.94.16-1.8.48-2.58.31-.76.78-1.45,1.37-2.03.6-.58,1.3-1.03,2.08-1.33.8-.32,1.68-.48,2.63-.48,1.05,0,1.98.18,2.78.55.79.35,1.48.88,2.03,1.55.54.66.91,1.43,1.12,2.32.22.89.24,1.85.06,2.89h-9.29c0,.56.14,1.05.43,1.46.3.42.71.74,1.24.98.54.23,1.16.35,1.87.35s1.38-.1,2.02-.29c.65-.2,1.26-.49,1.81-.88l1.16,2.4c-.38.3-.86.56-1.44.79-.58.22-1.19.4-1.84.52-.61.12-1.23.19-1.85.19h0Zm-3.2-7.94h5.72c-.02-.71-.28-1.28-.76-1.69-.47-.42-1.12-.62-1.96-.62s-1.52.21-2.08.62c-.54.42-.86.98-.94,1.69Zm11.13,7.58v-12.12h3.5v1.37c.46-.61,1.01-1.05,1.64-1.32.63-.27,1.32-.41,2-.41,1.13,0,2.06.22,2.78.67.74.44,1.28,1.01,1.63,1.72.36.7.54,1.44.54,2.22v7.87h-3.5v-6.78c0-.77-.22-1.38-.65-1.84-.42-.46-1.04-.68-1.85-.68-.51,0-.96.12-1.36.35-.39.22-.7.54-.92.95-.22.41-.32.88-.32,1.42v6.59s-3.5,0-3.5,0Zm19.29.35c-1.08,0-2.08-.14-2.99-.42-.91-.29-1.69-.68-2.34-1.18l1.14-2.45c.63.43,1.32.78,2.05,1.02.74.24,1.44.36,2.12.36s1.19-.1,1.55-.3c.37-.21.55-.5.55-.89,0-.34-.16-.6-.49-.76-.32-.17-.94-.35-1.87-.54-1.6-.29-2.77-.74-3.5-1.36-.74-.62-1.1-1.48-1.1-2.57,0-.77.21-1.44.64-2.03.43-.58,1.02-1.04,1.78-1.36.75-.33,1.62-.49,2.59-.49s1.86.13,2.71.4c.86.26,1.59.62,2.2,1.08l-1.1,2.46c-.34-.27-.71-.49-1.1-.67-.41-.19-.85-.34-1.3-.44-.43-.11-.87-.17-1.32-.17-.58,0-1.06.1-1.42.3-.36.19-.54.46-.54.82s.16.61.49.78c.33.17.94.35,1.84.55,1.67.35,2.86.82,3.56,1.4.71.58,1.07,1.39,1.07,2.44,0,.81-.22,1.51-.66,2.11-.43.6-1.04,1.07-1.82,1.4-.78.33-1.68.49-2.72.49h0Zm7.41-.35v-12.12h3.5v12.12h-3.5Zm1.75-14.04c-.55.01-1.09-.18-1.51-.54-.42-.37-.64-.86-.64-1.46s.21-1.1.64-1.46c.42-.37.96-.56,1.51-.55.56-.01,1.09.19,1.51.55.42.36.64.85.64,1.46s-.21,1.1-.64,1.46c-.42.36-.96.55-1.51.54Zm10.36,14.4c-1.3,0-2.46-.29-3.47-.88-.98-.56-1.8-1.36-2.38-2.33-.57-.98-.86-2.09-.85-3.22,0-.86.16-1.67.49-2.44.32-.77.8-1.47,1.39-2.05.6-.6,1.31-1.07,2.12-1.42s1.71-.52,2.69-.52c1.3,0,2.46.29,3.46.88.98.56,1.8,1.36,2.36,2.34.58.97.86,2.04.86,3.2,0,.85-.16,1.66-.49,2.44-.33.77-.8,1.47-1.39,2.06-.61.6-1.32,1.08-2.11,1.4-.82.34-1.71.52-2.69.52h0Zm0-3.04c.62,0,1.17-.14,1.66-.41.49-.28.87-.67,1.15-1.18.28-.51.42-1.11.42-1.8s-.14-1.3-.42-1.8c-.26-.49-.65-.9-1.14-1.16-.49-.28-1.04-.42-1.67-.42s-1.18.14-1.68.42c-.49.27-.87.66-1.15,1.16-.27.5-.41,1.1-.41,1.8s.14,1.3.42,1.8.66.9,1.15,1.18c.49.27,1.04.41,1.67.41Zm8.59,2.68v-12.12h3.5v1.37c.46-.61,1.01-1.05,1.64-1.32.63-.27,1.32-.41,2-.41,1.13,0,2.06.22,2.78.67.74.44,1.28,1.01,1.63,1.72.36.7.54,1.44.54,2.22v7.87h-3.5v-6.78c0-.77-.22-1.38-.65-1.84-.42-.46-1.04-.68-1.85-.68-.51,0-.96.12-1.36.35-.39.22-.7.54-.92.95-.22.41-.32.88-.32,1.42v6.59h-3.5,0Zm19.29.35c-1.08,0-2.08-.14-2.99-.42-.91-.29-1.69-.68-2.34-1.18l1.14-2.45c.63.43,1.32.78,2.05,1.02.74.24,1.44.36,2.12.36s1.19-.1,1.55-.3c.37-.21.55-.5.55-.89,0-.34-.16-.6-.49-.76-.32-.17-.94-.35-1.87-.54-1.6-.29-2.77-.74-3.5-1.36-.74-.62-1.1-1.48-1.1-2.57,0-.77.21-1.44.64-2.03.43-.58,1.02-1.04,1.78-1.36.75-.33,1.62-.49,2.59-.49s1.86.13,2.71.4c.86.26,1.59.62,2.2,1.08l-1.1,2.46c-.34-.27-.71-.49-1.1-.67-.41-.19-.85-.34-1.3-.44-.43-.11-.87-.17-1.32-.17-.58,0-1.06.1-1.42.3-.36.19-.54.46-.54.82s.16.61.49.78c.33.17.94.35,1.84.55,1.67.35,2.86.82,3.56,1.4.71.58,1.07,1.39,1.07,2.44,0,.81-.22,1.51-.66,2.11-.43.6-1.04,1.07-1.82,1.4-.78.33-1.68.49-2.72.49h0Z"/>
</svg>